<?xml version="1.0" encoding="UTF-8" standalone="no"?>
<svg
   class="MuiSvgIcon-root MuiSvgIcon-fontSizeMedium MuiBox-root css-uqopch"
   focusable="false"
   aria-hidden="true"
   viewBox="0 0 80 80"
   data-testid="TvIcon"
   version="1.1"
   id="svg4"
   sodipodi:docname="logo.svg"
   width="80"
   height="80"
   inkscape:version="1.2.1 (9c6d41e410, 2022-07-14)"
   xmlns:inkscape="http://www.inkscape.org/namespaces/inkscape"
   xmlns:sodipodi="http://sodipodi.sourceforge.net/DTD/sodipodi-0.dtd"
   xmlns:xlink="http://www.w3.org/1999/xlink"
   xmlns="http://www.w3.org/2000/svg"
   xmlns:svg="http://www.w3.org/2000/svg">
  <defs
     id="defs8">
    <linearGradient
       inkscape:collect="always"
       id="linearGradient4649">
      <stop
         style="stop-color:#111d2e;stop-opacity:1;"
         offset="0"
         id="stop4645" />
      <stop
         style="stop-color:#051839;stop-opacity:1;"
         offset="0.20999999"
         id="stop20730" />
      <stop
         style="stop-color:#0a1b48;stop-opacity:1;"
         offset="0.40000001"
         id="stop20734" />
      <stop
         style="stop-color:#132e62;stop-opacity:1;"
         offset="0.57999998"
         id="stop20720" />
      <stop
         style="stop-color:#144b7e;stop-opacity:1;"
         offset="0.7299999"
         id="stop20736" />
      <stop
         style="stop-color:#136497;stop-opacity:1;"
         offset="0.86999989"
         id="stop20732" />
      <stop
         style="stop-color:#1387b8;stop-opacity:1;"
         offset="1"
         id="stop4647" />
    </linearGradient>
    <linearGradient
       inkscape:collect="always"
       xlink:href="#linearGradient4649"
       id="linearGradient4651"
       x1="12.311361"
       y1="4.9793229"
       x2="12.311361"
       y2="19.934639"
       gradientUnits="userSpaceOnUse"
       gradientTransform="matrix(3.7142856,0,0,3.7142856,-5.1647424,-4.8379322)" />
  </defs>
  <sodipodi:namedview
     id="namedview6"
     pagecolor="#ffffff"
     bordercolor="#000000"
     borderopacity="0.25"
     inkscape:showpageshadow="2"
     inkscape:pageopacity="0.0"
     inkscape:pagecheckerboard="true"
     inkscape:deskcolor="#d1d1d1"
     showgrid="false"
     inkscape:zoom="4.3177083"
     inkscape:cx="-9.3799759"
     inkscape:cy="64.038601"
     inkscape:window-width="1920"
     inkscape:window-height="1010"
     inkscape:window-x="-6"
     inkscape:window-y="-6"
     inkscape:window-maximized="1"
     inkscape:current-layer="svg4" />
  <path
     d="M 75.583273,57.191428 71.5347,28.74 C 70.4947,21.422856 64.217559,16 56.826131,16 H 23.174702 C 15.783274,16 9.5061323,21.422856 8.4661323,28.74 L 4.4175605,57.191428 C 3.6004178,62.911427 8.0204176,68 13.777559,68 c 2.525715,0 4.902858,-1.002858 6.685715,-2.785715 l 8.394285,-8.357142 h 22.285715 l 8.357142,8.357142 C 61.283273,66.997142 63.697559,68 66.18613,68 71.980415,68 76.400417,62.911427 75.583273,57.191428 Z M 36.286131,38.285714 h -7.428572 v 7.428571 h -3.714285 v -7.428571 h -7.428572 v -3.714286 h 7.428572 v -7.428572 h 3.714285 v 7.428572 h 7.428572 z m 14.857143,-3.714286 c -2.042857,0 -3.714286,-1.671428 -3.714286,-3.714286 0,-2.042857 1.671429,-3.714286 3.714286,-3.714286 2.042857,0 3.714285,1.671429 3.714285,3.714286 0,2.042858 -1.671428,3.714286 -3.714285,3.714286 z m 7.42857,11.142857 c -2.042856,0 -3.714285,-1.671427 -3.714285,-3.714285 0,-2.042856 1.671429,-3.714286 3.714285,-3.714286 2.042857,0 3.714287,1.67143 3.714287,3.714286 0,2.042858 -1.67143,3.714285 -3.714287,3.714285 z"
     id="path3386"
     style="fill:url(#linearGradient4651);fill-opacity:1;stroke-width:3.71429" />
</svg>
