<?xml version="1.0" encoding="UTF-8" standalone="no"?>
<svg
   class="MuiSvgIcon-root MuiSvgIcon-fontSizeMedium MuiBox-root css-uqopch"
   focusable="false"
   aria-hidden="true"
   viewBox="0 0 80 80"
   data-testid="TvIcon"
   version="1.1"
   id="svg4"
   sodipodi:docname="logo.svg"
   width="80"
   height="80"
   inkscape:version="1.2.1 (9c6d41e410, 2022-07-14)"
   xmlns:inkscape="http://www.inkscape.org/namespaces/inkscape"
   xmlns:sodipodi="http://sodipodi.sourceforge.net/DTD/sodipodi-0.dtd"
   xmlns:xlink="http://www.w3.org/1999/xlink"
   xmlns="http://www.w3.org/2000/svg"
   xmlns:svg="http://www.w3.org/2000/svg">
  <defs
     id="defs8">
    <linearGradient
       inkscape:collect="always"
       id="linearGradient4649">
      <stop
         style="stop-color:#111d2e;stop-opacity:1;"
         offset="0"
         id="stop4645" />
      <stop
         style="stop-color:#051839;stop-opacity:1;"
         offset="0.20999999"
         id="stop20730" />
      <stop
         style="stop-color:#0a1b48;stop-opacity:1;"
         offset="0.40000001"
         id="stop20734" />
      <stop
         style="stop-color:#132e62;stop-opacity:1;"
         offset="0.57999998"
         id="stop20720" />
      <stop
         style="stop-color:#144b7e;stop-opacity:1;"
         offset="0.7299999"
         id="stop20736" />
      <stop
         style="stop-color:#136497;stop-opacity:1;"
         offset="0.86999989"
         id="stop20732" />
      <stop
         style="stop-color:#1387b8;stop-opacity:1;"
         offset="1"
         id="stop4647" />
    </linearGradient>
    <linearGradient
       inkscape:collect="always"
       xlink:href="#linearGradient4649"
       id="linearGradient4651"
       x1="12.311361"
       y1="4.9793229"
       x2="12.311361"
       y2="19.934639"
       gradientUnits="userSpaceOnUse"
       gradientTransform="matrix(3.7142856,0,0,3.7142856,-5.1647424,-4.8379322)" />
    <filter
       style="color-interpolation-filters:sRGB;"
       inkscape:label="Drop Shadow"
       id="filter2558"
       x="-0.033333353"
       y="-0.055426299"
       width="1.0666667"
       height="1.1339469">
      <feFlood
         flood-opacity="0.498039"
         flood-color="rgb(0,0,0)"
         result="flood"
         id="feFlood2548" />
      <feComposite
         in="flood"
         in2="SourceGraphic"
         operator="in"
         result="composite1"
         id="feComposite2550" />
      <feGaussianBlur
         in="composite1"
         stdDeviation="1"
         result="blur"
         id="feGaussianBlur2552" />
      <feOffset
         dx="0"
         dy="1"
         result="offset"
         id="feOffset2554" />
      <feComposite
         in="SourceGraphic"
         in2="offset"
         operator="over"
         result="composite2"
         id="feComposite2556" />
    </filter>
    <filter
       style="color-interpolation-filters:sRGB;"
       inkscape:label="Drop Shadow"
       id="filter2582"
       x="-0.033631903"
       y="-0.046153846"
       width="1.0672638"
       height="1.1115385">
      <feFlood
         flood-opacity="0.498039"
         flood-color="rgb(0,0,0)"
         result="flood"
         id="feFlood2572" />
      <feComposite
         in="flood"
         in2="SourceGraphic"
         operator="in"
         result="composite1"
         id="feComposite2574" />
      <feGaussianBlur
         in="composite1"
         stdDeviation="1"
         result="blur"
         id="feGaussianBlur2576" />
      <feOffset
         dx="0"
         dy="1"
         result="offset"
         id="feOffset2578" />
      <feComposite
         in="SourceGraphic"
         in2="offset"
         operator="over"
         result="composite2"
         id="feComposite2580" />
    </filter>
    <clipPath
       clipPathUnits="userSpaceOnUse"
       id="clipPath6777">
      <use
         x="0"
         y="0"
         xlink:href="#g6773"
         id="use6779" />
    </clipPath>
    <linearGradient
       inkscape:collect="always"
       xlink:href="#linearGradient4649"
       id="linearGradient6842"
       gradientUnits="userSpaceOnUse"
       gradientTransform="matrix(3.7142856,0,0,3.7142856,-5.164742,-4.837932)"
       x1="18.520821"
       y1="2.7615514"
       x2="6.6614776"
       y2="20.138542" />
    <filter
       style="color-interpolation-filters:sRGB;"
       inkscape:label="Drop Shadow"
       id="filter6868"
       x="-0.033333333"
       y="-0.033333333"
       width="1.0666667"
       height="1.0805556">
      <feFlood
         flood-opacity="0.498039"
         flood-color="rgb(0,0,0)"
         result="flood"
         id="feFlood6858" />
      <feComposite
         in="flood"
         in2="SourceGraphic"
         operator="in"
         result="composite1"
         id="feComposite6860" />
      <feGaussianBlur
         in="composite1"
         stdDeviation="1"
         result="blur"
         id="feGaussianBlur6862" />
      <feOffset
         dx="0"
         dy="1"
         result="offset"
         id="feOffset6864" />
      <feComposite
         in="SourceGraphic"
         in2="offset"
         operator="over"
         result="composite2"
         id="feComposite6866" />
    </filter>
  </defs>
  <sodipodi:namedview
     id="namedview6"
     pagecolor="#ffffff"
     bordercolor="#000000"
     borderopacity="0.25"
     inkscape:showpageshadow="2"
     inkscape:pageopacity="0.0"
     inkscape:pagecheckerboard="true"
     inkscape:deskcolor="#d1d1d1"
     showgrid="false"
     inkscape:zoom="2.8284271"
     inkscape:cx="-64.877047"
     inkscape:cy="17.147339"
     inkscape:window-width="1920"
     inkscape:window-height="1010"
     inkscape:window-x="-6"
     inkscape:window-y="-6"
     inkscape:window-maximized="1"
     inkscape:current-layer="svg4" />
  <path
     d="M 75.583273,57.191428 71.5347,28.74 C 70.4947,21.422856 64.217559,16 56.826131,16 H 23.174702 C 15.783274,16 9.5061323,21.422856 8.4661323,28.74 L 4.4175605,57.191428 C 3.6004178,62.911427 8.0204176,68 13.777559,68 c 2.525715,0 4.902858,-1.002858 6.685715,-2.785715 l 8.394285,-8.357142 h 22.285715 l 8.357142,8.357142 C 61.283273,66.997142 63.697559,68 66.18613,68 71.980415,68 76.400417,62.911427 75.583273,57.191428 Z M 36.286131,38.285714 h -7.428572 v 7.428571 h -3.714285 v -7.428571 h -7.428572 v -3.714286 h 7.428572 v -7.428572 h 3.714285 v 7.428572 h 7.428572 z m 14.857143,-3.714286 c -2.042857,0 -3.714286,-1.671428 -3.714286,-3.714286 0,-2.042857 1.671429,-3.714286 3.714286,-3.714286 2.042857,0 3.714285,1.671429 3.714285,3.714286 0,2.042858 -1.671428,3.714286 -3.714285,3.714286 z m 7.42857,11.142857 c -2.042856,0 -3.714285,-1.671427 -3.714285,-3.714285 0,-2.042856 1.671429,-3.714286 3.714285,-3.714286 2.042857,0 3.714287,1.67143 3.714287,3.714286 0,2.042858 -1.67143,3.714285 -3.714287,3.714285 z"
     id="path3386"
     style="display:none;fill:url(#linearGradient4651);fill-opacity:1;stroke-width:3.71429;filter:url(#filter2582)"
     inkscape:label="material gamepad" />
  <g
     id="g8258"
     inkscape:label="circle icon">
    <circle
       style="display:inline;fill:url(#linearGradient6842);fill-opacity:1;stroke-width:1.125;filter:url(#filter6868)"
       id="path2723-3"
       cx="40"
       cy="40"
       r="36"
       inkscape:label="gradient" />
    <g
       id="g5783">
      <g
         id="g6775"
         clip-path="url(#clipPath6777)"
         style="display:inline">
        <g
           inkscape:label="Clip"
           id="g6773">
          <circle
             style="display:inline;fill:none;fill-opacity:1;stroke-width:1.125"
             id="path2723"
             cx="40"
             cy="40"
             r="36"
             inkscape:label="gradient" />
        </g>
        <path
           d="m 11.2625,71.175314 q -3.9374997,0 -6.4999998,-2.75 -2.5625,-2.75 -2.6875,-6.4375 0,-0.5 0.0625,-1.125 0.0625,-0.625 0.1875,-1.125 l 5.25,-21.000001 q 0.8750001,-3.312499 3.5937498,-5.437499 2.71875,-2.125 6.09375,-2.125 h 24.375001 q 3.374999,0 6.09375,2.125 2.718749,2.125 3.59375,5.437499 L 56.575,59.737814 q 0.125,0.5625 0.218751,1.15625 0.09375,0.59375 0.09375,1.15625 0,3.75 -2.656251,6.4375 -2.656253,2.6875 -6.593752,2.6875 -2.625001,0 -4.875,-1.375 -2.25,-1.375 -3.375,-3.75 l -1.750001,-3.625 q -0.3125,-0.6875 -0.90625,-0.96875 -0.59375,-0.28125 -1.34375,-0.28125 h -11.875 q -0.749999,0 -1.34375,0.28125 -0.593749,0.28125 -0.90625,0.96875 l -1.75,3.625 q -1.125,2.375 -3.375,3.75 -2.25,1.375 -4.875,1.375 z m 0.1875,-3.75 q 1.375,0 2.65625,-0.71875 1.28125,-0.71875 2.09375,-2.28125 l 1.75,-3.5625 q 0.8125,-1.625 2.28125,-2.53125 1.46875,-0.90625 3.28125,-0.90625 h 11.875 q 1.750001,0 3.25,0.9375 1.5,0.9375 2.375,2.5 l 1.750001,3.5625 q 0.812499,1.5625 2.093749,2.28125 1.28125,0.71875 2.656251,0.71875 2.124999,0 3.8125,-1.46875 1.687499,-1.46875 1.749999,-3.84375 0,-0.3125 -0.03125,-0.71875 -0.03125,-0.40625 -0.15625,-0.78125 L 47.637501,39.675313 q -0.500001,-2.125 -2.15625,-3.4375 -1.656251,-1.3125 -3.84375,-1.3125 H 17.2625 q -2.1875,0 -3.84375,1.3125 -1.65625,1.3125 -2.15625,3.4375 L 6.0125002,60.612814 q -0.0625,0.25 -0.1874999,1.4375 0,2.375 1.75,3.875 1.7499997,1.5 3.8749997,1.5 z M 33.2,48.050313 q -0.75,0 -1.3125,-0.562499 -0.5625,-0.562501 -0.5625,-1.375 0,-0.75 0.5625,-1.28125 0.5625,-0.53125 1.375001,-0.53125 0.749999,0 1.28125,0.53125 0.531249,0.53125 0.531249,1.34375 0,0.749999 -0.531249,1.3125 Q 34.0125,48.050313 33.2,48.050313 Z m 5.000001,-4.999999 q -0.750001,0 -1.3125,-0.5625 -0.562501,-0.5625 -0.562501,-1.375001 0,-0.749999 0.562501,-1.28125 0.562499,-0.531249 1.375,-0.531249 0.749999,0 1.28125,0.531249 0.531249,0.531251 0.531249,1.343751 0,0.75 -0.531249,1.3125 -0.531251,0.5625 -1.34375,0.5625 z m 0,10 q -0.750001,0 -1.3125,-0.5625 -0.562501,-0.5625 -0.562501,-1.375 0,-0.750001 0.562501,-1.28125 0.562499,-0.531251 1.375,-0.531251 0.749999,0 1.28125,0.531251 0.531249,0.531249 0.531249,1.34375 0,0.75 -0.531249,1.3125 -0.531251,0.5625 -1.34375,0.5625 z M 43.2,48.050313 q -0.75,0 -1.312499,-0.562499 -0.562501,-0.562501 -0.562501,-1.375 0,-0.75 0.562501,-1.28125 0.562499,-0.53125 1.374999,-0.53125 0.750001,0 1.28125,0.53125 0.531251,0.53125 0.531251,1.34375 0,0.749999 -0.531251,1.3125 -0.531249,0.562499 -1.34375,0.562499 z m -22.5,4.062501 q -0.625,0 -1.09375,-0.468751 -0.46875,-0.468749 -0.46875,-1.09375 V 47.737814 H 16.325 q -0.624999,0 -1.09375,-0.46875 -0.46875,-0.468751 -0.46875,-1.09375 0,-0.625001 0.46875,-1.09375 0.468751,-0.468751 1.09375,-0.468751 h 2.8125 v -2.812499 q 0,-0.625 0.46875,-1.09375 0.46875,-0.46875 1.09375,-0.46875 0.625,0 1.09375,0.46875 0.46875,0.46875 0.46875,1.09375 v 2.812499 h 2.812501 q 0.624999,0 1.093749,0.468751 0.46875,0.468749 0.46875,1.09375 0,0.624999 -0.46875,1.09375 -0.46875,0.46875 -1.093749,0.46875 H 22.2625 v 2.812499 q 0,0.625001 -0.46875,1.09375 Q 21.325,52.112814 20.7,52.112814 Z"
           id="path5808"
           style="fill:#ffffff;stroke-width:1.25" />
        <path
           d="m 57.12281,35.505529 c 0.464157,0 0.858686,-0.174532 1.183595,-0.523567 0.32491,-0.347189 0.440946,-0.706445 0.348117,-1.077767 -0.371324,-3.017007 -1.612475,-5.581927 -3.723452,-7.694761 -2.112833,-2.110977 -4.677754,-3.352128 -7.694761,-3.723452 -0.371322,-0.09282 -0.730578,0.01117 -1.077767,0.311913 -0.349044,0.30263 -0.523567,0.70923 -0.523567,1.219799 0,0.371323 0.150387,0.730579 0.451159,1.077768 0.30263,0.349043 0.68602,0.569983 1.150175,0.662813 2.135114,0.324909 3.945319,1.230012 5.430614,2.715306 1.485294,1.485295 2.390397,3.2955 2.715306,5.430614 0.09282,0.464155 0.3017,0.847545 0.626609,1.150176 0.32491,0.300772 0.696232,0.451158 1.113972,0.451158 z m 8.424413,0 c 0.464155,0 0.847545,-0.162445 1.150176,-0.487362 0.300772,-0.32491 0.451158,-0.696233 0.451158,-1.113972 -0.417739,-5.337783 -2.506436,-9.886501 -6.266092,-13.646156 -3.759655,-3.759656 -8.308372,-5.848353 -13.646156,-6.266092 -0.417739,0 -0.789062,0.150385 -1.113972,0.451159 -0.324909,0.302629 -0.487362,0.686019 -0.487362,1.150175 0,0.41774 0.162445,0.789062 0.487362,1.113972 0.32491,0.324909 0.696233,0.510569 1.113972,0.556986 4.455888,0.371323 8.24989,2.123974 11.382008,5.257948 3.133974,3.132118 4.886625,6.92612 5.257947,11.382008 0.04642,0.417739 0.220929,0.789062 0.523567,1.113972 0.300773,0.324909 0.683236,0.487362 1.147392,0.487362 z"
           id="path7636"
           sodipodi:nodetypes="scccccsccsccssccsccssccccs"
           style="fill:#ffffff;stroke-width:2.78493" />
      </g>
    </g>
  </g>
</svg>
